<?xml version="1.0" encoding="UTF-8"?>
<svg width="60px" height="60px" viewBox="0 0 60 60" version="1.1" xmlns="http://www.w3.org/2000/svg" xmlns:xlink="http://www.w3.org/1999/xlink">
    <!-- Generator: Sketch 52.5 (67469) - http://www.bohemiancoding.com/sketch -->
    <title>Group</title>
    <desc>Created with Sketch.</desc>
    <defs>
        <linearGradient x1="50%" y1="0%" x2="50%" y2="100%" id="linearGradient-1">
            <stop stop-color="#36CEF9" offset="0%"></stop>
            <stop stop-color="#279DF4" offset="100%"></stop>
        </linearGradient>
    </defs>
    <g id="Page-1" stroke="none" stroke-width="1" fill="none" fill-rule="evenodd">
        <g id="Group" transform="translate(-78.000000, -62.000000)">
            <g id="App-Icon-60-x-60" fill="url(#linearGradient-1)">
                <path d="M95.3062251,62 L120.693775,62 C126.711526,62 128.893708,62.6265729 131.093708,63.8031458 C133.293708,64.9797186 135.020281,66.7062915 136.196854,68.9062915 C137.373427,71.1062915 138,73.2884736 138,79.3062251 L138,104.693775 C138,110.711526 137.373427,112.893708 136.196854,115.093708 C135.020281,117.293708 133.293708,119.020281 131.093708,120.196854 C128.893708,121.373427 126.711526,122 120.693775,122 L95.3062251,122 C89.2884736,122 87.1062915,121.373427 84.9062915,120.196854 C82.7062915,119.020281 80.9797186,117.293708 79.8031458,115.093708 C78.6265729,112.893708 78,110.711526 78,104.693775 L78,79.3062251 C78,73.2884736 78.6265729,71.1062915 79.8031458,68.9062915 C80.9797186,66.7062915 82.7062915,64.9797186 84.9062915,63.8031458 C87.1062915,62.6265729 89.2884736,62 95.3062251,62 Z" id="App-Icon"></path>
            </g>
            <rect id="Rectangle" stroke="#FFFFFF" x="93.5" y="80.5" width="31" height="22"></rect>
            <path d="M113.586547,75.4999957 C111.402496,75.4999978 109.6222,77.251886 109.587068,79.4356545 C109.583252,79.672878 109.578255,79.9130267 109.572078,80.1561013 C109.56992,80.2410223 109.646898,80.3066267 109.995152,80.385797 C110.408844,80.4798436 111.001149,80.5126388 112.038165,80.5133855 C112.450105,80.5136821 112.751407,80.5128057 113.653296,80.5093169 C115.239555,80.5031807 116.059428,80.5031451 117.02392,80.5132305 C117.032608,80.5133216 117.032608,80.5133216 117.041296,80.5134135 C117.155888,80.5145801 117.155888,80.5145801 117.270547,80.5155646 C117.987587,80.5214484 118.591386,80.5205823 119.807378,80.5146559 C121.027321,80.5087102 121.489734,80.507912 122.055523,80.513409 C123.999749,80.5322984 124.5,80.426577 124.5,80.1433996 C124.5,79.8172869 124.5,79.8172869 124.5,79.4999855 C124.499998,77.2908428 122.709132,75.4999806 120.49999,75.4999826 L113.586547,75.4999957 Z" id="Rectangle" stroke="#FFFFFF"></path>
            <path id="Line" d="M108.571996,91 L108.571996,86.5 L108.571996,86 L109.571996,86 L109.571996,86.5 L109.571996,91 L113.035136,91 C113.331636,91 113.571996,91.2403604 113.571996,91.5368599 C113.571996,91.6202047 113.552591,91.702405 113.515318,91.7769509 L109.552237,99.7031136 C109.419638,99.9683108 109.097161,100.075803 108.831964,99.9432046 C108.728067,99.891256 108.643821,99.8070107 108.591873,99.7031136 L104.628791,91.7769509 C104.496193,91.5117537 104.603685,91.1892764 104.868882,91.0566778 C104.943428,91.0194048 105.025629,91 105.108973,91 L108.571996,91 Z" fill="#FFFFFF" fill-rule="nonzero"></path>
        </g>
    </g>
</svg>